<svg xmlns="http://www.w3.org/2000/svg" xmlns:xlink="http://www.w3.org/1999/xlink" width="500" zoomAndPan="magnify" viewBox="0 0 375 374.999991" height="500" preserveAspectRatio="xMidYMid meet" version="1.2"><defs><clipPath id="87a8bdb86e"><path d="M 10.515625 55 L 363 55 L 363 325 L 10.515625 325 Z M 10.515625 55 "/></clipPath></defs><g id="455b30c852"><path style=" stroke:none;fill-rule:nonzero;fill:#ffffff;fill-opacity:1;" d="M 97.269531 192.648438 L 97.269531 345.8125 L 147.726562 375.015625 L 147.726562 221.851562 L 100.128906 194.304688 Z M 97.269531 192.648438 "/><path style=" stroke:none;fill-rule:nonzero;fill:#ffffff;fill-opacity:1;" d="M 225.789062 374.554688 L 274.339844 346.460938 L 274.339844 193.226562 L 225.789062 221.335938 Z M 225.789062 374.554688 "/><g clip-rule="nonzero" clip-path="url(#87a8bdb86e)"><path style=" stroke:none;fill-rule:nonzero;fill:#ffffff;fill-opacity:1;" d="M 338.054688 56.035156 L 187.226562 143.34375 L 36.046875 55.847656 L 35.820312 55.714844 L 35.304688 55.714844 L 10.628906 70 L 10.628906 295.664062 L 61.089844 324.878906 L 61.089844 129.660156 L 186.65625 202.332031 L 313.378906 128.988281 L 313.378906 323.871094 L 362.886719 295.210938 L 362.886719 70.398438 Z M 338.054688 56.035156 "/></g><path style=" stroke:none;fill-rule:nonzero;fill:#ffffff;fill-opacity:1;" d="M 284.519531 25.042969 L 241.378906 0.078125 L 186.539062 31.8125 L 131.566406 0 L 87.035156 25.777344 L 185.148438 82.5625 Z M 284.519531 25.042969 "/></g></svg>